<?xml version="1.0" encoding="UTF-8" standalone="no"?>
<!-- Created with Inkscape (http://www.inkscape.org/) -->

<svg
   width="128"
   height="128"
   viewBox="0 0 33.866667 33.866667"
   version="1.1"
   id="svg5"
   xmlns="http://www.w3.org/2000/svg"
   xmlns:svg="http://www.w3.org/2000/svg">
  <defs
     id="defs2" />
  <path
     id="path814"
     style="display:inline;fill:#8950f7;fill-rule:evenodd;stroke-width:0;stroke-linecap:square;paint-order:stroke fill markers"
     d="M 0 8.4666667 L 0 12.7 L 13.135116 12.7 A 29.633333 29.633333 0 0 1 16.938501 9.5575562 A 29.633333 29.633333 0 0 1 20.737752 12.7 L 33.866667 12.7 L 33.866667 8.4666667 L 18.616435 8.4666667 L 0 8.4666667 z M 16.932817 14.951542 C 16.781735 15.086718 16.633039 15.224193 16.485299 15.362887 C 16.433009 15.411957 16.381577 15.461727 16.329753 15.511198 C 16.230913 15.605568 16.132486 15.700511 16.035197 15.796452 C 15.985047 15.845882 15.935031 15.895472 15.885335 15.94528 C 15.785546 16.045337 15.68681 16.146404 15.588713 16.248104 C 15.538983 16.299644 15.488625 16.350697 15.439368 16.402617 C 15.303734 16.545631 15.1696 16.690038 15.037325 16.836182 C 15.002965 16.874132 14.969635 16.912773 14.935523 16.950903 C 14.841693 17.055837 14.748555 17.161185 14.65647 17.26768 C 14.58927 17.34537 14.523193 17.42386 14.456999 17.502291 C 14.395499 17.575181 14.334233 17.648322 14.273548 17.721916 C 14.205608 17.804286 14.137819 17.886811 14.070976 17.969963 C 14.055106 17.989713 14.038737 18.009074 14.022917 18.028874 C 14.023282 18.029197 14.023618 18.029617 14.02395 18.029907 C 10.456818 22.494701 8.4704238 28.069438 8.4666667 33.866667 L 12.7 33.866667 C 12.7049 29.256489 14.214265 24.816871 16.934884 21.189405 C 19.654388 24.817455 21.162887 29.256837 21.166667 33.866667 L 25.4 33.866667 C 25.3961 28.070673 23.410645 22.497189 19.844784 18.033008 C 19.847884 18.030208 19.850985 18.02754 19.854085 18.02474 C 18.967686 16.920716 17.99052 15.89273 16.932817 14.951542 z M 0 21.166667 L 0 25.4 L 5.4751181 25.4 A 29.633333 29.633333 0 0 1 7.0967245 21.166667 L 0 21.166667 z M 26.773043 21.166667 A 29.633333 29.633333 0 0 1 28.39775 25.4 L 33.866667 25.4 L 33.866667 21.166667 L 26.773043 21.166667 z " />
</svg>
