<?xml version="1.0" encoding="UTF-8" standalone="no"?>
<!-- Created with Inkscape (http://www.inkscape.org/) -->

<svg
   width="128"
   height="128"
   viewBox="0 0 33.866667 33.866667"
   version="1.1"
   id="svg5"
   xmlns="http://www.w3.org/2000/svg"
   xmlns:svg="http://www.w3.org/2000/svg">
  <defs
     id="defs2" />
  <path
     id="path814"
     style="display:inline;fill:#8950f7;fill-rule:evenodd;stroke-width:0;stroke-linecap:square;paint-order:stroke fill markers"
     d="M 25.399967,3.485e-5 H 21.166633 V 13.135151 a 29.633333,29.633333 0 0 1 3.142444,3.803385 29.633333,29.633333 0 0 1 -3.142444,3.799251 v 13.128915 h 4.233334 V 18.61647 Z M 18.915091,16.932852 c -0.135176,-0.151082 -0.272651,-0.299778 -0.411345,-0.447518 -0.04907,-0.05229 -0.09884,-0.103722 -0.148311,-0.155546 -0.09437,-0.09884 -0.189313,-0.197267 -0.285254,-0.294556 -0.04943,-0.05015 -0.09902,-0.100166 -0.148828,-0.149862 -0.100057,-0.09979 -0.201124,-0.198525 -0.302824,-0.296622 -0.05154,-0.04973 -0.102593,-0.100088 -0.154513,-0.149345 -0.143014,-0.135634 -0.287421,-0.269768 -0.433565,-0.402043 -0.03795,-0.03436 -0.07659,-0.06769 -0.114721,-0.101802 -0.104934,-0.09383 -0.210282,-0.186968 -0.316777,-0.279053 -0.07769,-0.0672 -0.15618,-0.133277 -0.234611,-0.199471 -0.07289,-0.0615 -0.146031,-0.122766 -0.219625,-0.183451 -0.08237,-0.06794 -0.164895,-0.135729 -0.248047,-0.202572 -0.01975,-0.01587 -0.03911,-0.03224 -0.05891,-0.04806 -3.23e-4,3.65e-4 -7.43e-4,7.01e-4 -10e-4,10e-4 C 11.371966,10.456819 5.7972288,8.4704238 0,8.4666668 v 4.2333682 c 4.610178,0.0049 9.0497958,1.514265 12.677262,4.234884 C 9.0492118,19.654423 4.60983,21.162922 0,21.166702 v 4.233333 c 5.7959938,-0.0039 11.369478,-1.989355 15.833659,-5.555216 0.0028,0.0031 0.0055,0.0062 0.0083,0.0093 1.104024,-0.886399 2.13201,-1.863565 3.073198,-2.921268 z M 12.699966,3.485e-5 H 8.4666328 V 5.4751529 a 29.633333,29.633333 0 0 1 4.2333332,1.621606 z m 0,26.77304315 a 29.633333,29.633333 0 0 1 -4.2333332,1.624707 v 5.468917 h 4.2333332 z" />
</svg>
