<?xml version="1.0" encoding="UTF-8" standalone="no"?>
<!-- Created with Inkscape (http://www.inkscape.org/) -->

<svg
   width="128"
   height="128"
   viewBox="0 0 33.866667 33.866667"
   version="1.1"
   id="svg5"
   xmlns="http://www.w3.org/2000/svg"
   xmlns:svg="http://www.w3.org/2000/svg">
  <defs
     id="defs2" />
  <path
     id="path814"
     style="display:inline;fill:#8950f7;fill-rule:evenodd;stroke-width:0;stroke-linecap:square;paint-order:stroke fill markers"
     d="M 33.866632,25.399967 V 21.166633 H 20.731516 A 29.633333,29.633333 0 0 1 16.928131,24.309077 29.633333,29.633333 0 0 1 13.12888,21.166633 H -3.455e-5 v 4.233334 H 15.250197 Z M 16.933815,18.915091 c 0.151082,-0.135176 0.299778,-0.272651 0.447518,-0.411345 0.05229,-0.04907 0.103722,-0.09884 0.155546,-0.148311 0.09884,-0.09437 0.197267,-0.189313 0.294556,-0.285254 0.05015,-0.04943 0.100166,-0.09902 0.149862,-0.148828 0.09979,-0.100057 0.198525,-0.201124 0.296622,-0.302824 0.04973,-0.05154 0.100088,-0.102593 0.149345,-0.154513 0.135634,-0.143014 0.269768,-0.287421 0.402043,-0.433565 0.03436,-0.03795 0.06769,-0.07659 0.101802,-0.114721 0.09383,-0.104934 0.186968,-0.210282 0.279053,-0.316777 0.0672,-0.07769 0.133277,-0.15618 0.199471,-0.234611 0.0615,-0.07289 0.122766,-0.146031 0.183451,-0.219625 0.06794,-0.08237 0.135729,-0.164895 0.202572,-0.248047 0.01587,-0.01975 0.03224,-0.03911 0.04806,-0.05891 -3.65e-4,-3.23e-4 -7.01e-4,-7.43e-4 -0.001,-10e-4 C 23.409848,11.371966 25.396243,5.7972288 25.4,0 H 21.166632 C 21.161732,4.610178 19.652367,9.0497958 16.931748,12.677262 14.212244,9.0492118 12.703745,4.60983 12.699965,0 H 8.4666323 c 0.0039,5.7959938 1.9893547,11.369478 5.5552157,15.833659 -0.0031,0.0028 -0.0062,0.0055 -0.0093,0.0083 0.886399,1.104024 1.863565,2.13201 2.921268,3.073198 z M 33.866632,12.699966 V 8.4666328 h -5.475118 a 29.633333,29.633333 0 0 1 -1.621606,4.2333332 z m -26.7730427,0 A 29.633333,29.633333 0 0 1 5.4688825,8.4666328 H -3.455e-5 v 4.2333332 z" />
</svg>
