<?xml version="1.0" encoding="UTF-8" standalone="no"?>
<!-- Created with Inkscape (http://www.inkscape.org/) -->

<svg
   width="128"
   height="128"
   viewBox="0 0 33.866667 33.866667"
   version="1.1"
   id="svg5"
   xmlns="http://www.w3.org/2000/svg"
   xmlns:svg="http://www.w3.org/2000/svg">
  <defs
     id="defs2" />
  <path
     id="path814"
     style="display:inline;fill:#8950f7;fill-rule:evenodd;stroke-width:0;stroke-linecap:square;paint-order:stroke fill markers"
     d="M 8.4666667 0 C 8.4692501 3.8392755 9.3423805 7.5805047 10.967289 10.966773 C 7.5808277 9.3417515 3.839449 8.469155 0 8.4666667 L 0 12.7 C 4.6101734 12.7049 9.0497999 14.214268 12.677262 16.934884 C 9.0492159 19.654385 4.6098254 21.162887 0 21.166667 L 0 25.4 C 3.8392749 25.397417 7.5805048 24.524287 10.966773 22.899378 C 9.3417512 26.285839 8.469155 30.027218 8.4666667 33.866667 L 12.7 33.866667 C 12.7049 29.256494 14.214268 24.816867 16.934884 21.189405 C 19.654384 24.817451 21.162888 29.256842 21.166667 33.866667 L 25.4 33.866667 C 25.397417 30.027392 24.524287 26.286162 22.899378 22.899894 C 26.285839 24.524916 30.027218 25.397512 33.866667 25.4 L 33.866667 21.166667 C 29.256494 21.161767 24.816867 19.652399 21.189405 16.931783 C 24.817451 14.212282 29.256842 12.70378 33.866667 12.7 L 33.866667 8.4666667 C 30.027392 8.4692501 26.286162 9.3423804 22.899894 10.967289 C 24.524928 7.5808171 25.397512 3.8394645 25.4 0 L 21.166667 0 C 21.161767 4.6101741 19.652399 9.0497998 16.931783 12.677262 C 14.212282 9.0492158 12.70378 4.6098261 12.7 0 L 8.4666667 0 z " />
</svg>
