<?xml version="1.0" encoding="UTF-8" standalone="no"?>
<!-- Created with Inkscape (http://www.inkscape.org/) -->

<svg
   width="128"
   height="128"
   viewBox="0 0 33.866667 33.866667"
   version="1.1"
   id="svg5"
   xmlns="http://www.w3.org/2000/svg"
   xmlns:svg="http://www.w3.org/2000/svg">
  <defs
     id="defs2" />
  <path
     id="path1728-7-4"
     style="display:inline;fill:#8950f7;fill-rule:evenodd;stroke-width:0;stroke-linecap:square;paint-order:stroke fill markers"
     d="M 8.4666667,0 C 8.4683667,3.6117974 10.007926,7.0520222 12.7,9.4598878 a 12.700001,12.700001 0 0 0 4.233333,2.5099242 12.700001,12.700001 0 0 0 4.233334,-2.5099242 C 23.858741,7.0520232 25.398256,3.6117974 25.4,0 h -4.233333 c 7e-6,3.02485 -1.613737,5.8199446 -4.233334,7.3323691 C 14.313736,5.8199446 12.699993,3.02485 12.7,0 Z M 0,8.4666667 V 12.7 c 3.02485,-7e-6 5.8199446,1.613737 7.3323691,4.233333 C 5.8199446,19.552931 3.02485,21.166674 0,21.166667 V 25.4 C 3.6117974,25.3983 7.0520222,23.858741 9.4598878,21.166667 A 12.700001,12.700001 0 0 0 11.969812,16.933333 12.700001,12.700001 0 0 0 9.4598878,12.7 C 7.0520232,10.007926 3.6117974,8.4684107 0,8.4666667 Z m 33.866667,0 C 30.254871,8.4683667 26.814645,10.007926 24.406779,12.7 a 12.700001,12.700001 0 0 0 -2.509924,4.233333 12.700001,12.700001 0 0 0 2.509924,4.233334 c 2.407865,2.692074 5.848092,4.231588 9.459888,4.233333 v -4.233333 c -3.02485,7e-6 -5.819945,-1.613737 -7.332369,-4.233334 1.512424,-2.619596 4.307519,-4.23334 7.332369,-4.233333 z M 16.933333,21.896855 A 12.700001,12.700001 0 0 0 12.7,24.406779 c -2.692074,2.407865 -4.2315886,5.848092 -4.2333333,9.459888 H 12.7 c -7e-6,-3.02485 1.613737,-5.819945 4.233333,-7.332369 2.619598,1.512424 4.233341,4.307519 4.233334,7.332369 H 25.4 c -0.0017,-3.611796 -1.541259,-7.052022 -4.233333,-9.459888 a 12.700001,12.700001 0 0 0 -4.233334,-2.509924 z" />
</svg>
