<?xml version="1.0" encoding="UTF-8" standalone="no"?>
<!-- Created with Inkscape (http://www.inkscape.org/) -->

<svg
   width="128"
   height="128"
   viewBox="0 0 33.866667 33.866667"
   version="1.1"
   id="svg5"
   xmlns="http://www.w3.org/2000/svg"
   xmlns:svg="http://www.w3.org/2000/svg">
  <path
     id="path2770"
     style="display:inline;fill:#8950f7;fill-rule:evenodd;stroke-width:0;stroke-linecap:square;paint-order:stroke fill markers"
     d="M 8.4666667 0 A 8.4666672 8.4666672 0 0 1 0 8.4666667 L 0 12.7 A 12.700001 12.700001 0 0 0 5.4813192 11.454598 A 12.700001 12.700001 0 0 1 11.454598 5.4813192 A 12.700001 12.700001 0 0 0 12.7 0 L 8.4666667 0 z M 21.166667 0 A 12.700001 12.700001 0 0 0 22.412069 5.4813192 A 12.700001 12.700001 0 0 1 28.385348 11.454598 A 12.700001 12.700001 0 0 0 33.866667 12.7 L 33.866667 8.4666667 A 8.4666672 8.4666672 0 0 1 25.4 0 L 21.166667 0 z M 16.933333 8.4666667 A 8.4666672 8.4666672 0 0 0 8.4666667 16.933333 A 8.4666672 8.4666672 0 0 0 16.933333 25.4 A 8.4666672 8.4666672 0 0 0 25.4 16.933333 A 8.4666672 8.4666672 0 0 0 16.933333 8.4666667 z M 16.933333 12.7 A 4.2333336 4.2333336 0 0 1 21.166667 16.933333 A 4.2333336 4.2333336 0 0 1 16.933333 21.166667 A 4.2333336 4.2333336 0 0 1 12.7 16.933333 A 4.2333336 4.2333336 0 0 1 16.933333 12.7 z M 0 21.166667 L 0 25.4 A 8.4666672 8.4666672 0 0 1 8.4666667 33.866667 L 12.7 33.866667 A 12.700001 12.700001 0 0 0 11.454598 28.385348 A 12.700001 12.700001 0 0 1 5.4813192 22.412069 A 12.700001 12.700001 0 0 0 0 21.166667 z M 33.866667 21.166667 A 12.700001 12.700001 0 0 0 28.385348 22.412069 A 12.700001 12.700001 0 0 1 22.412069 28.385348 A 12.700001 12.700001 0 0 0 21.166667 33.866667 L 25.4 33.866667 A 8.4666672 8.4666672 0 0 1 33.866667 25.4 L 33.866667 21.166667 z " />
  <defs
     id="defs2" />
</svg>
