<?xml version="1.0" encoding="UTF-8" standalone="no"?>
<!-- Created with Inkscape (http://www.inkscape.org/) -->

<svg
   width="128"
   height="128"
   viewBox="0 0 33.866667 33.866667"
   version="1.1"
   id="svg5"
   xmlns="http://www.w3.org/2000/svg"
   xmlns:svg="http://www.w3.org/2000/svg">
  <path
     id="path1373-6"
     style="display:inline;fill:#8950f7;fill-rule:evenodd;stroke-width:0;stroke-linecap:square;paint-order:stroke fill markers"
     d="M 8.4666667 0 C 8.4647673 3.4314295 7.0743263 6.7159891 4.6121216 9.1059042 C 3.1362634 8.688102 1.5871448 8.4666872 0 8.4666667 L 0 12.7 C 6.0687899 12.700832 11.288964 16.995227 12.459705 22.950021 C 11.462177 24.132409 10.628306 25.447963 9.9854371 26.860376 C 9.9435741 26.952351 9.9026875 27.044579 9.8624472 27.137362 C 9.9025486 27.044687 9.9436826 26.952323 9.9854371 26.860376 C 10.253756 26.269518 10.555702 25.693804 10.890808 25.13645 C 7.8406153 22.57315 3.984241 21.167471 0 21.166667 L 0 25.4 C 3.4319171 25.4019 6.7169373 26.79272 9.1069378 29.255579 C 8.6888734 30.731172 8.4670771 32.279726 8.4666667 33.866667 L 12.7 33.866667 C 12.7011 27.799065 16.994051 22.579743 22.947437 21.407996 C 22.241454 20.812012 21.587106 20.159467 20.9889 19.458244 C 20.918733 19.375993 20.849234 19.293273 20.780644 19.20968 C 20.643463 19.042493 20.509353 18.872574 20.378601 18.700151 C 20.313165 18.61386 20.24861 18.526753 20.184815 18.439185 C 20.12157 18.352372 20.058843 18.265232 19.997229 18.177185 C 20.058884 18.265269 20.121584 18.352424 20.184815 18.439185 C 20.248693 18.526835 20.313139 18.613867 20.378601 18.700151 C 20.509525 18.872718 20.643535 19.042687 20.780644 19.20968 C 20.849198 19.293177 20.918836 19.376167 20.9889 19.458244 C 22.600362 21.346019 24.607608 22.855868 26.860376 23.88123 C 26.952351 23.923093 27.044579 23.96398 27.137362 24.00422 C 27.044687 23.964118 26.952323 23.922984 26.860376 23.88123 C 26.269518 23.612911 25.693804 23.310965 25.13645 22.975859 C 22.57315 26.026051 21.167471 29.882426 21.166667 33.866667 L 25.4 33.866667 C 25.4019 30.43475 26.79272 27.14973 29.255579 24.759729 C 30.731172 25.177794 32.279726 25.39959 33.866667 25.4 L 33.866667 21.166667 C 27.799065 21.165584 22.579743 16.872616 21.407996 10.91923 C 20.881964 11.54235 20.311837 12.125138 19.70319 12.66486 C 19.541729 12.808037 19.377567 12.948059 19.210714 13.08499 C 19.127117 13.153594 19.042933 13.221587 18.958016 13.288595 C 18.876979 13.35254 18.795289 13.415774 18.71307 13.478247 C 18.795273 13.415756 18.877072 13.352503 18.958016 13.288595 C 19.042904 13.221573 19.127228 13.153545 19.210714 13.08499 C 19.377685 12.94788 19.541932 12.807956 19.70319 12.66486 C 21.552576 11.02377 23.021368 8.9954512 24.00422 6.7293051 C 23.706422 7.4175198 23.363112 8.0861302 22.975859 8.7302166 C 26.026051 11.293517 29.882426 12.699196 33.866667 12.7 L 33.866667 8.4666667 C 30.434506 8.4647669 27.149256 7.0737576 24.759212 4.6105713 C 25.177235 3.1350406 25.399592 1.5868597 25.4 0 L 21.166667 0 C 21.165682 6.0672818 16.873239 11.286492 10.920264 12.458671 C 10.936697 12.47254 10.952978 12.4866 10.969356 12.500529 C 10.267759 11.90413 9.5189774 11.365586 8.7302166 10.890808 C 11.293517 7.8406153 12.699196 3.984241 12.7 0 L 8.4666667 0 z M 24.126693 6.43785 C 24.10378 6.4936389 24.080437 6.549226 24.05693 6.6047649 C 24.080471 6.5492762 24.103734 6.4936164 24.126693 6.43785 z M 18.692399 13.494267 C 18.613921 13.553706 18.534739 13.6124 18.455204 13.670484 C 18.534804 13.61233 18.61393 13.553728 18.692399 13.494267 z M 18.4335 13.686503 C 18.348134 13.748638 18.262193 13.809913 18.175635 13.870471 C 18.081164 13.936565 17.986247 14.002132 17.890381 14.066325 C 18.410546 15.550804 19.123044 16.928236 19.994645 18.174085 C 19.928976 18.080195 19.864133 17.985647 19.800342 17.890381 C 18.428936 18.370925 17.149211 19.016106 15.979903 19.798792 C 15.498789 18.426184 14.852667 17.145342 14.068909 15.975252 C 15.553035 15.454938 16.930097 14.742074 18.175635 13.870471 C 18.262306 13.809821 18.348109 13.748679 18.4335 13.686503 z M 15.066781 20.456116 C 15.033824 20.48151 15.000831 20.506973 14.968079 20.532597 C 15.000848 20.506954 15.033806 20.481528 15.066781 20.456116 z M 14.84974 20.625615 C 14.808519 20.658461 14.767638 20.691623 14.72675 20.724833 C 14.767613 20.691635 14.808543 20.658449 14.84974 20.625615 z M 14.353646 21.036959 C 14.324756 21.061837 14.296057 21.086826 14.267346 21.11189 C 14.296044 21.086831 14.324769 21.061833 14.353646 21.036959 z M 27.204025 24.032642 C 27.275249 24.063171 27.346796 24.093509 27.418482 24.123076 C 27.346722 24.093549 27.275369 24.063151 27.204025 24.032642 z " />
  <defs
     id="defs2" />
</svg>
