<?xml version="1.0" encoding="UTF-8" standalone="no"?>
<!-- Created with Inkscape (http://www.inkscape.org/) -->

<svg
   width="128"
   height="128"
   viewBox="0 0 33.866667 33.866667"
   version="1.1"
   id="svg5"
   xmlns="http://www.w3.org/2000/svg"
   xmlns:svg="http://www.w3.org/2000/svg">
  <defs
     id="defs2" />
  <path
     id="path814"
     style="display:inline;fill:#8950f7;fill-rule:evenodd;stroke-width:0;stroke-linecap:square;paint-order:stroke fill markers"
     d="M 8.4667003,33.866667 H 12.700034 V 20.731551 A 29.633333,29.633333 0 0 1 9.5575898,16.928166 29.633333,29.633333 0 0 1 12.700034,13.128915 V 5.0000001e-8 H 8.4667003 V 15.250232 Z M 14.951576,16.93385 c 0.135176,0.151082 0.272651,0.299778 0.411345,0.447518 0.04907,0.05229 0.09884,0.103722 0.148311,0.155546 0.09437,0.09884 0.189313,0.197267 0.285254,0.294556 0.04943,0.05015 0.09902,0.100166 0.148828,0.149862 0.100057,0.09979 0.201124,0.198525 0.302824,0.296622 0.05154,0.04973 0.102593,0.100088 0.154513,0.149345 0.143014,0.135634 0.287421,0.269768 0.433565,0.402043 0.03795,0.03436 0.07659,0.06769 0.114721,0.101802 0.104934,0.09383 0.210282,0.186968 0.316777,0.279053 0.07769,0.0672 0.15618,0.133277 0.234611,0.199471 0.07289,0.0615 0.146031,0.122766 0.219625,0.183451 0.08237,0.06794 0.164895,0.135729 0.248047,0.202572 0.01975,0.01587 0.03911,0.03224 0.05891,0.04806 3.23e-4,-3.65e-4 7.43e-4,-7.01e-4 0.001,-0.001 4.464794,3.567132 10.039531,5.553527 15.83676,5.557284 V 21.166667 C 29.256489,21.161767 24.816871,19.652402 21.189405,16.931783 24.817455,14.212279 29.256837,12.70378 33.866667,12.7 V 8.4666668 c -5.795994,0.0039 -11.369478,1.9893552 -15.833659,5.5552162 -0.0028,-0.0031 -0.0055,-0.0062 -0.0083,-0.0093 -1.104024,0.886399 -2.13201,1.863565 -3.073198,2.921268 z m 6.215125,16.932817 h 4.233333 v -5.475118 a 29.633333,29.633333 0 0 1 -4.233333,-1.621606 z m 0,-26.7730432 A 29.633333,29.633333 0 0 1 25.400034,5.4689171 V 5.0000001e-8 h -4.233333 z" />
</svg>
