<?xml version="1.0" encoding="UTF-8" standalone="no"?>
<!-- Created with Inkscape (http://www.inkscape.org/) -->

<svg
   width="128"
   height="128"
   viewBox="0 0 33.866667 33.866667"
   version="1.1"
   id="svg5"
   xmlns="http://www.w3.org/2000/svg"
   xmlns:svg="http://www.w3.org/2000/svg">
  <defs
     id="defs2" />
  <g
     id="layer1"
     clip-path="none"
     mask="none">
    <path
       id="path5010"
       style="fill:#8950f7;fill-rule:evenodd;stroke-width:0;stroke-linecap:square;paint-order:stroke fill markers"
       d="M 16.933333,4.2333333 A 12.7,12.7 0 0 0 4.2333333,16.933333 a 12.7,12.7 0 0 0 12.6999997,12.7 12.7,12.7 0 0 0 12.7,-12.7 12.7,12.7 0 0 0 -12.7,-12.6999997 z m 0,4.2333334 A 8.4666662,8.4666662 0 0 1 25.4,16.933333 8.4666662,8.4666662 0 0 1 16.933333,25.4 8.4666662,8.4666662 0 0 1 8.4666667,16.933333 8.4666662,8.4666662 0 0 1 16.933333,8.4666667 Z" />
    <rect
       style="fill:#8950f7;fill-rule:evenodd;stroke-width:0;stroke-linecap:square;paint-order:stroke fill markers"
       id="rect5118"
       width="8.4666662"
       height="4.2333331"
       x="0"
       y="8.4666662" />
    <rect
       style="fill:#8950f7;fill-rule:evenodd;stroke-width:0;stroke-linecap:square;paint-order:stroke fill markers"
       id="rect5120"
       width="8.4666662"
       height="4.2333331"
       x="0"
       y="21.166666" />
  </g>
</svg>
